<?xml version="1.0" encoding="utf-8"?>
<!-- Generator: Adobe Illustrator 17.0.0, SVG Export Plug-In . SVG Version: 6.00 Build 0)  -->
<!DOCTYPE svg PUBLIC "-//W3C//DTD SVG 1.1//EN" "http://www.w3.org/Graphics/SVG/1.1/DTD/svg11.dtd">
<svg version="1.1" id="Warstwa_1" xmlns="http://www.w3.org/2000/svg" xmlns:xlink="http://www.w3.org/1999/xlink" x="0px" y="0px"
	 width="467.32px" height="46.19px" viewBox="0 0 467.32 46.19" enable-background="new 0 0 467.32 46.19" xml:space="preserve">
<path fill="#FFFFFF" d="M25.604,39.057c0.98-1.21,2.08-2.797,3.306-4.767c1.227-1.964,2.427-4.073,3.592-6.312
	c1.171-2.24,2.256-4.511,3.244-6.81c1-2.297,1.765-4.366,2.312-6.199h5.556c-0.861,2.69-1.949,5.458-3.276,8.302
	c-1.329,2.844-2.755,5.603-4.295,8.274c-1.543,2.667-3.141,5.193-4.797,7.567c-1.656,2.378-3.244,4.462-4.762,6.255h-4.851
	c-0.429-3.349-0.81-6.751-1.138-10.199c-0.333-3.451-0.542-6.945-0.619-10.496c-0.78,1.754-1.654,3.569-2.624,5.438
	c-0.981,1.87-1.999,3.722-3.074,5.554c-1.069,1.829-2.16,3.575-3.273,5.231c-1.113,1.654-2.168,3.152-3.187,4.471H2.866
	c-0.82-4.015-1.48-8.592-1.984-13.738c-0.508-5.143-0.799-10.695-0.88-16.661h5.437c0.044,1.833,0.091,3.823,0.147,5.966
	c0.056,2.139,0.143,4.297,0.267,6.456c0.115,2.164,0.257,4.263,0.437,6.284c0.172,2.026,0.381,3.819,0.609,5.381
	c1.209-1.712,2.399-3.577,3.568-5.584c1.17-2.004,2.303-4.066,3.387-6.167c1.094-2.101,2.098-4.212,3.016-6.312
	c0.914-2.103,1.703-4.111,2.364-6.024h4.915c0,1.756,0.028,3.637,0.084,5.641c0.058,2.009,0.152,4.064,0.296,6.167
	c0.133,2.109,0.285,4.201,0.465,6.284C25.167,35.153,25.377,37.147,25.604,39.057z"/>
<path fill="#FFFFFF" d="M53.822,46.128c-1.987,0-3.699-0.284-5.145-0.846c-1.444-0.566-2.65-1.346-3.627-2.338
	c-0.968-0.996-1.692-2.15-2.16-3.479c-0.464-1.321-0.703-2.725-0.703-4.21c0-2.725,0.41-5.355,1.227-7.89
	c0.82-2.532,1.989-4.772,3.511-6.723c1.517-1.947,3.368-3.494,5.55-4.646c2.182-1.148,4.659-1.724,7.426-1.724
	c1.597,0,2.97,0.203,4.12,0.615c1.152,0.41,2.083,0.966,2.806,1.665c0.722,0.697,1.257,1.511,1.609,2.425
	c0.351,0.919,0.523,1.861,0.523,2.836c0,1.831-0.333,3.393-0.99,4.676c-0.664,1.286-1.541,2.351-2.635,3.188
	c-1.088,0.836-2.363,1.489-3.825,1.955c-1.462,0.472-2.983,0.827-4.562,1.085c-1.573,0.252-3.173,0.438-4.789,0.551
	c-1.616,0.118-3.148,0.22-4.592,0.297c-0.041,0.306-0.062,0.566-0.062,0.761c0,0.194,0,0.346,0,0.464
	c0,0.895,0.111,1.748,0.325,2.541c0.214,0.799,0.613,1.504,1.199,2.105c0.585,0.605,1.393,1.083,2.425,1.434
	c1.032,0.351,2.387,0.521,4.062,0.521c0.742,0,1.515-0.064,2.314-0.203c0.795-0.131,1.554-0.31,2.274-0.522
	c0.72-0.212,1.355-0.429,1.9-0.643c0.543-0.212,0.953-0.417,1.229-0.613l0.466,4.614c-0.78,0.432-2.036,0.887-3.769,1.376
	C58.196,45.882,56.158,46.128,53.822,46.128z M48.266,29.407c2.265-0.073,4.331-0.224,6.199-0.436
	c1.87-0.214,3.489-0.586,4.853-1.107c1.365-0.53,2.421-1.239,3.182-2.135c0.761-0.897,1.143-2.068,1.143-3.507
	c0-0.351-0.068-0.724-0.205-1.115c-0.137-0.383-0.372-0.746-0.699-1.079c-0.335-0.327-0.782-0.603-1.348-0.821
	c-0.568-0.211-1.297-0.316-2.192-0.316c-1.361,0-2.641,0.291-3.825,0.874c-1.19,0.585-2.256,1.357-3.188,2.308
	c-0.936,0.957-1.737,2.069-2.397,3.334C49.123,26.67,48.619,28.005,48.266,29.407z"/>
<path fill="#FFFFFF" d="M90.239,31.982c-0.194,0.857-0.391,1.694-0.586,2.511c-0.194,0.818-0.293,1.601-0.293,2.342
	c0,1.327,0.323,2.378,0.97,3.158c0.637,0.776,1.836,1.267,3.592,1.459l-1.226,4.445c-1.599-0.045-2.957-0.286-4.066-0.731
	c-1.107-0.449-2.007-1.043-2.688-1.786c-0.682-0.735-1.178-1.618-1.492-2.63c-0.31-1.015-0.468-2.124-0.468-3.333
	c0-0.895,0.077-1.831,0.241-2.804c0.152-0.977,0.366-1.989,0.637-3.039l7.368-30.633l5.667-0.932L90.239,31.982z"/>
<path fill="#FFFFFF" d="M108.116,46.128c-3.197,0-5.705-0.945-7.511-2.833c-1.814-1.891-2.72-4.492-2.72-7.808
	c0-2.257,0.323-4.633,0.962-7.131c0.643-2.492,1.673-4.789,3.071-6.898c1.4-2.101,3.214-3.838,5.436-5.197
	c2.222-1.366,4.908-2.052,8.067-2.052c3.193,0,5.701,0.947,7.513,2.836c1.806,1.891,2.718,4.496,2.718,7.808
	c0,2.257-0.319,4.635-0.968,7.129c-0.637,2.491-1.665,4.795-3.064,6.896c-1.406,2.105-3.216,3.84-5.44,5.205
	C113.963,45.446,111.27,46.128,108.116,46.128z M109.056,41.512c1.748,0,3.318-0.506,4.699-1.519
	c1.389-1.013,2.553-2.31,3.509-3.893c0.951-1.573,1.684-3.321,2.188-5.227c0.509-1.913,0.763-3.763,0.763-5.556
	c0-1.947-0.44-3.515-1.314-4.706c-0.878-1.186-2.351-1.782-4.415-1.782c-1.752,0-3.321,0.511-4.706,1.521
	c-1.383,1.015-2.554,2.31-3.504,3.889c-0.958,1.579-1.684,3.317-2.193,5.231c-0.509,1.909-0.763,3.761-0.763,5.55
	c0,1.951,0.445,3.519,1.319,4.707C105.515,40.918,106.982,41.512,109.056,41.512z"/>
<path fill="#FFFFFF" d="M134.302,45.369c-0.464-2.028-0.904-4.222-1.31-6.573c-0.412-2.363-0.79-4.836-1.143-7.426
	c-0.346-2.594-0.648-5.27-0.904-8.039c-0.258-2.765-0.421-5.552-0.494-8.36h5.488c0.043,1.914,0.124,3.947,0.237,6.109
	c0.116,2.165,0.282,4.329,0.496,6.488c0.22,2.163,0.457,4.25,0.733,6.255c0.271,2.007,0.56,3.831,0.876,5.468
	c1.171-1.481,2.389-3.227,3.652-5.231c1.265-2.009,2.483-4.112,3.656-6.314c1.169-2.203,2.24-4.415,3.212-6.639
	c0.979-2.216,1.754-4.265,2.342-6.137h5.488c-0.853,2.573-1.934,5.244-3.242,8.015c-1.304,2.761-2.737,5.483-4.291,8.15
	c-1.56,2.673-3.186,5.233-4.881,7.687c-1.699,2.459-3.344,4.641-4.943,6.547H134.302z"/>
<path fill="#FFFFFF" d="M166.847,46.128c-1.985,0-3.701-0.284-5.143-0.846c-1.447-0.566-2.656-1.346-3.626-2.338
	c-0.975-0.996-1.692-2.15-2.158-3.479c-0.473-1.321-0.705-2.725-0.705-4.21c0-2.725,0.41-5.355,1.227-7.89
	c0.818-2.532,1.987-4.772,3.505-6.723c1.517-1.947,3.374-3.494,5.55-4.646c2.19-1.148,4.663-1.724,7.428-1.724
	c1.598,0,2.97,0.203,4.124,0.615c1.145,0.41,2.083,0.966,2.806,1.665c0.716,0.697,1.255,1.511,1.601,2.425
	c0.353,0.919,0.528,1.861,0.528,2.836c0,1.831-0.333,3.393-0.992,4.676c-0.663,1.286-1.543,2.351-2.63,3.188
	c-1.096,0.836-2.37,1.489-3.832,1.955c-1.459,0.472-2.981,0.827-4.56,1.085c-1.575,0.252-3.175,0.438-4.791,0.551
	c-1.618,0.118-3.145,0.22-4.59,0.297c-0.039,0.306-0.058,0.566-0.058,0.761c0,0.194,0,0.346,0,0.464
	c0,0.895,0.105,1.748,0.323,2.541c0.211,0.799,0.609,1.504,1.199,2.105c0.579,0.605,1.389,1.083,2.427,1.434
	c1.026,0.351,2.383,0.521,4.062,0.521c0.739,0,1.509-0.064,2.308-0.203c0.795-0.131,1.556-0.31,2.278-0.522
	c0.723-0.212,1.351-0.429,1.904-0.643c0.541-0.212,0.951-0.417,1.227-0.613l0.464,4.614c-0.778,0.432-2.036,0.887-3.765,1.376
	C171.219,45.882,169.184,46.128,166.847,46.128z M161.295,29.407c2.259-0.073,4.327-0.224,6.195-0.436
	c1.874-0.214,3.489-0.586,4.853-1.107c1.363-0.53,2.425-1.239,3.186-2.135c0.761-0.897,1.141-2.068,1.141-3.507
	c0-0.351-0.071-0.724-0.211-1.115c-0.133-0.383-0.37-0.746-0.699-1.079c-0.327-0.327-0.778-0.603-1.346-0.821
	c-0.56-0.211-1.295-0.316-2.186-0.316c-1.368,0-2.646,0.291-3.831,0.874c-1.19,0.585-2.25,1.357-3.188,2.308
	c-0.936,0.957-1.735,2.069-2.395,3.334C162.152,26.67,161.647,28.005,161.295,29.407z"/>
<path fill="#FFFFFF" d="M215.07,13.976c1.874,0,3.49,0.335,4.851,0.994c1.365,0.666,2.492,1.562,3.396,2.69
	c0.893,1.133,1.556,2.459,1.985,3.975c0.427,1.523,0.641,3.16,0.641,4.911c0,2.69-0.494,5.233-1.489,7.627
	c-0.994,2.4-2.346,4.483-4.064,6.259c-1.716,1.772-3.742,3.171-6.079,4.203c-2.334,1.034-4.872,1.551-7.597,1.551
	c-0.351,0-0.97-0.009-1.846-0.028c-0.874-0.019-1.882-0.109-3.005-0.261c-1.133-0.158-2.331-0.391-3.596-0.705
	c-1.267-0.306-2.464-0.737-3.597-1.284l10.114-42.496l9.056-1.404l-3.618,15.08c0.774-0.35,1.555-0.62,2.336-0.818
	C213.337,14.077,214.173,13.976,215.07,13.976z M207.473,39c1.365,0,2.65-0.336,3.857-0.996c1.209-0.66,2.256-1.549,3.131-2.66
	c0.874-1.115,1.569-2.368,2.073-3.77c0.504-1.402,0.761-2.866,0.761-4.387c0-1.87-0.314-3.329-0.936-4.383
	c-0.624-1.051-1.776-1.579-3.451-1.579c-0.547,0-1.255,0.104-2.129,0.291c-0.88,0.199-1.665,0.611-2.37,1.231l-3.859,16.014
	c0.235,0.041,0.44,0.081,0.615,0.116c0.173,0.039,0.361,0.068,0.551,0.088c0.203,0.023,0.429,0.034,0.705,0.034
	C206.696,39,207.044,39,207.473,39z"/>
<path fill="#FFFFFF" d="M235.339,45.369h-8.652l7.306-30.744h8.71L235.339,45.369z M239.55,10.878c-1.209,0-2.304-0.361-3.274-1.081
	c-0.979-0.716-1.464-1.817-1.464-3.302c0-0.818,0.167-1.584,0.494-2.308c0.335-0.722,0.772-1.342,1.316-1.87
	c0.551-0.524,1.182-0.943,1.9-1.259c0.722-0.31,1.492-0.464,2.312-0.464c1.209,0,2.297,0.359,3.272,1.079
	c0.97,0.723,1.46,1.827,1.46,3.302c0,0.821-0.163,1.59-0.5,2.312c-0.329,0.722-0.763,1.344-1.314,1.872
	c-0.541,0.524-1.178,0.942-1.896,1.254C241.132,10.728,240.367,10.878,239.55,10.878z"/>
<path fill="#FFFFFF" d="M250.286,6.965l9.063-1.404l-2.227,9.063h9.704l-1.75,7.129h-9.648l-2.567,10.755
	c-0.241,0.897-0.372,1.733-0.41,2.511c-0.045,0.782,0.056,1.453,0.291,2.019c0.231,0.566,0.648,1.004,1.254,1.312
	c0.603,0.314,1.468,0.472,2.601,0.472c0.934,0,1.842-0.088,2.722-0.265c0.876-0.173,1.761-0.413,2.654-0.729l0.647,6.667
	c-1.171,0.427-2.434,0.797-3.799,1.107c-1.366,0.314-2.985,0.466-4.853,0.466c-2.69,0-4.772-0.399-6.255-1.194
	c-1.485-0.801-2.53-1.895-3.16-3.278c-0.617-1.38-0.893-2.97-0.818-4.761c0.079-1.795,0.353-3.682,0.818-5.671L250.286,6.965z"/>
<path fill="#FFFFFF" d="M266.445,33.095c0-2.648,0.427-5.146,1.284-7.484c0.857-2.338,2.09-4.385,3.688-6.141
	c1.594-1.748,3.534-3.131,5.817-4.148c2.276-1.011,4.821-1.521,7.627-1.521c1.754,0,3.323,0.166,4.705,0.498
	c1.385,0.336,2.639,0.771,3.772,1.314l-2.983,6.785c-0.78-0.316-1.59-0.596-2.426-0.848c-0.836-0.258-1.861-0.381-3.068-0.381
	c-2.889,0-5.173,0.994-6.868,2.979c-1.695,1.987-2.547,4.658-2.547,8.011c0,1.987,0.429,3.594,1.29,4.823
	c0.857,1.229,2.436,1.84,4.733,1.84c1.133,0,2.226-0.118,3.274-0.35c1.055-0.233,1.989-0.528,2.806-0.876l0.645,6.955
	c-1.094,0.425-2.301,0.808-3.622,1.143c-1.329,0.325-2.908,0.493-4.738,0.493c-2.419,0-4.462-0.353-6.139-1.051
	c-1.673-0.707-3.058-1.645-4.146-2.835c-1.094-1.194-1.883-2.584-2.372-4.184C266.693,36.523,266.445,34.845,266.445,33.095z"/>
<path fill="#FFFFFF" d="M304.878,46.186c-2.064,0-3.857-0.314-5.379-0.938c-1.519-0.622-2.774-1.496-3.769-2.63
	c-0.994-1.128-1.742-2.462-2.252-4.002c-0.508-1.539-0.754-3.244-0.754-5.111c0-2.342,0.376-4.684,1.137-7.018
	c0.756-2.34,1.876-4.443,3.363-6.312c1.474-1.872,3.291-3.402,5.432-4.594c2.141-1.186,4.599-1.782,7.362-1.782
	c2.028,0,3.812,0.316,5.353,0.938c1.536,0.622,2.801,1.504,3.801,2.63c0.99,1.133,1.741,2.464,2.244,4.005
	c0.511,1.537,0.761,3.244,0.761,5.114c0,2.334-0.368,4.676-1.107,7.018c-0.737,2.331-1.831,4.438-3.274,6.312
	c-1.442,1.868-3.242,3.397-5.407,4.586C310.23,45.59,307.724,46.186,304.878,46.186z M309.201,21.169
	c-1.284,0-2.415,0.372-3.387,1.107c-0.974,0.744-1.793,1.68-2.453,2.808c-0.665,1.133-1.162,2.368-1.494,3.712
	c-0.333,1.346-0.494,2.618-0.494,3.829c0,1.949,0.314,3.47,0.93,4.562c0.63,1.088,1.756,1.635,3.395,1.635
	c1.288,0,2.415-0.368,3.391-1.113c0.97-0.739,1.787-1.675,2.453-2.804c0.662-1.128,1.162-2.366,1.496-3.712
	c0.327-1.342,0.492-2.622,0.492-3.829c0-1.945-0.312-3.468-0.938-4.56C311.97,21.716,310.839,21.169,309.201,21.169z"/>
<path fill="#FFFFFF" d="M331.608,45.369h-8.659l7.306-30.744h8.716L331.608,45.369z M335.811,10.878
	c-1.207,0-2.299-0.361-3.27-1.081c-0.975-0.716-1.462-1.817-1.462-3.302c0-0.818,0.169-1.584,0.496-2.308
	c0.329-0.722,0.769-1.342,1.318-1.87c0.543-0.524,1.182-0.943,1.898-1.259c0.72-0.31,1.489-0.464,2.306-0.464
	c1.209,0,2.303,0.359,3.276,1.079c0.974,0.723,1.464,1.827,1.464,3.302c0,0.821-0.173,1.59-0.5,2.312s-0.767,1.344-1.312,1.872
	c-0.549,0.524-1.18,0.942-1.9,1.254C337.401,10.728,336.632,10.878,335.811,10.878z"/>
<path fill="#FFFFFF" d="M345.203,16.024c0.656-0.192,1.389-0.423,2.188-0.673c0.801-0.252,1.694-0.485,2.693-0.697
	c0.989-0.216,2.103-0.393,3.331-0.53c1.225-0.139,2.622-0.207,4.174-0.207c4.562,0,7.708,1.329,9.445,3.979
	c1.737,2.65,2.036,6.276,0.91,10.871l-3.979,16.601h-8.71l3.857-16.251c0.235-1.015,0.419-1.996,0.556-2.955
	c0.139-0.949,0.13-1.786-0.03-2.511c-0.154-0.716-0.517-1.303-1.079-1.756c-0.57-0.447-1.432-0.671-2.603-0.671
	c-1.128,0-2.276,0.12-3.447,0.355l-5.671,23.788h-8.714L345.203,16.024z"/>
<g>
	<g>
		<path fill="#F39321" d="M466.626,28.683c-3.084,12.373-15.617,19.901-27.991,16.817c-12.368-3.085-19.901-15.616-16.813-27.989
			c3.084-12.373,15.616-19.905,27.987-16.822C462.181,3.775,469.712,16.31,466.626,28.683z"/>
		<g>
			<g>
				<path fill="#FFFFFF" d="M454.403,19.806c0.461-3.075-1.879-4.725-5.078-5.829l1.035-4.163l-2.534-0.631l-1.007,4.054
					c-0.669-0.167-1.353-0.323-2.034-0.477l1.019-4.081l-2.532-0.631l-1.039,4.161c-0.553-0.126-1.094-0.248-1.618-0.38l0.002-0.013
					l-3.494-0.872l-0.675,2.705c0,0,1.88,0.432,1.842,0.459c1.024,0.258,1.212,0.936,1.18,1.475l-1.184,4.74
					c0.071,0.019,0.164,0.045,0.267,0.086c-0.086-0.021-0.177-0.043-0.271-0.068l-1.656,6.644c-0.126,0.312-0.445,0.78-1.162,0.602
					c0.024,0.036-1.84-0.46-1.84-0.46l-1.261,2.902l3.299,0.823c0.613,0.152,1.214,0.312,1.806,0.464l-1.049,4.21l2.532,0.632
					l1.039-4.165c0.692,0.186,1.363,0.361,2.019,0.524l-1.034,4.146l2.534,0.632l1.049-4.205c4.321,0.818,7.571,0.489,8.937-3.419
					c1.102-3.148-0.053-4.964-2.329-6.146C452.822,23.142,454.071,22.056,454.403,19.806z M448.614,27.924
					c-0.784,3.148-6.082,1.447-7.8,1.019l1.391-5.575C443.923,23.797,449.432,24.642,448.614,27.924z M449.398,19.761
					c-0.714,2.863-5.125,1.408-6.556,1.051l1.261-5.06C445.533,16.109,450.142,16.774,449.398,19.761z"/>
			</g>
		</g>
	</g>
	<path fill="#C1292E" d="M427.632,13.269c0,14.352-23.091,32.312-23.091,32.312s-23.091-17.959-23.091-32.312
		c0-14.353,11.545-18.405,23.091-5.41C416.088-5.136,427.632,0.279,427.632,13.269z"/>
</g>
</svg>
