<?xml version="1.0" encoding="utf-8"?>
<!-- Generator: Adobe Illustrator 16.0.0, SVG Export Plug-In . SVG Version: 6.00 Build 0)  -->
<!DOCTYPE svg PUBLIC "-//W3C//DTD SVG 1.1//EN" "http://www.w3.org/Graphics/SVG/1.1/DTD/svg11.dtd">
<svg version="1.1" id="Layer_1" xmlns="http://www.w3.org/2000/svg" xmlns:xlink="http://www.w3.org/1999/xlink" x="0px" y="0px"
	 width="200px" height="240px" viewBox="0 0 200 240" enable-background="new 0 0 200 240" xml:space="preserve">
	 <style type="text/css"><![CDATA[
		#C1 {fill:#2082BC}
		#P1,#P2 {fill:none;stroke:#FFF}
		#P1 {stroke-width:25;stroke-linecap:square}
		#P2 {stroke-width:28}
		#C0,#P1,#P0 {fill:#FFF}
		]]>
	</style>
	<g transform="scale(0.14) translate(1150,20)">
		<circle id="C0" cx="98" cy="98" r="98"/>
		<circle id="C1" cx="98" cy="98" r="78"/>
		<path id="P0" d="M 77.46,98.79 L 112.47,151.5 L 139.47,151.50 L 104.46,98.79 L 77.46,98.79 z" transform="translate(6.53,0)"/>
		<path id="P1" d="M 50.16,139.00 L 50.16,55.39" transform="translate(13.32,0)"/>
		<path id="P2" transform="matrix(0.9,0,0,.88,-9.93,1)" d="M 88.54,61.66 L 135.86,61.66 C 148.84,61.66 159.38,72.20 159.38,85.18 C 159.38,98.16 148.84,108.69 135.86,108.69 L 88.54,108.69"/>
	</g>
	<g transform="translate(20, 30)">
		<path fill="#FFFFFF" d="M32.353,58.359c-1.846-3.034-4.001-6.238-6.74-9.96c-1.244-1.679-4.539-2.381-7.222-1.451
			c-6.814,2.368-10.066,3.837-16.156,7.198c-2.364,1.325-2.905,3.527-1.372,4.879c10.072,8.851,14.642,14.48,19.996,24.338
			L32.353,58.359z M18.051,59.34c-2.641,1.042-5.875,0.619-7.425-1.063c-1.55-1.701-0.719-4.116,2.058-5.309
			c2.771-1.188,6.352-0.588,7.771,1.244C21.871,56.038,20.697,58.277,18.051,59.34z"/>
		<path fill="#FFFFFF" d="M97.547,84.472H56.2c-4.963,0-9.625,2.529-13.056,6.854c-0.423,0.525-0.833,1.08-1.21,1.668
			c-0.063,0.098-0.131,0.212-0.194,0.309h70.254c-0.07-0.097-0.117-0.211-0.182-0.309c-0.39-0.589-0.8-1.144-1.208-1.668
			C107.164,87.001,102.491,84.472,97.547,84.472z"/>
		<path fill="#FFFFFF" d="M114.687,91.326c0.014,0.037,0.047,0.065,0.063,0.114c0.327,0.508,0.669,1.013,0.962,1.571h17.888
			l-0.764-1.685l-0.753-1.662l-1.302-2.858l-11.527-25.071l-1.322-2.872c-0.572-1.241-1.174-2.418-1.829-3.559
			c-5.368,7.347-12.83,12.88-21.739,15.785c-5.142,1.679-11.427,2.594-17.695,2.594c-1.357,0-2.694-0.05-3.968-0.131
			c-11.948-0.812-24.68-6.773-33.232-15.618c-0.72-0.753-1.386-1.539-2.024-2.336c-0.585,1.062-1.126,2.139-1.648,3.266l-1.405,3.052
			L22.886,86.971l-1.24,2.693l-0.767,1.662l-0.77,1.685h17.894c0.309-0.583,0.666-1.126,1.026-1.685
			c0.378-0.568,0.764-1.124,1.176-1.662c0.976-1.291,2.035-2.499,3.215-3.527c0.028-0.017,0.047-0.031,0.065-0.051
			c0.699-0.602,1.419-1.157,2.171-1.665c0.098-0.081,0.215-0.131,0.327-0.195c0.666-0.423,1.355-0.847,2.071-1.19
			c0.249-0.114,0.491-0.179,0.736-0.293c0.602-0.263,1.208-0.541,1.843-0.736c0.427-0.131,0.881-0.212,1.341-0.326
			c0.454-0.098,0.893-0.246,1.369-0.31c0.928-0.164,1.877-0.229,2.839-0.229H97.53c0.962,0,1.91,0.083,2.844,0.229
			c0.469,0.064,0.909,0.195,1.366,0.31c0.444,0.114,0.915,0.195,1.339,0.326c0.622,0.195,1.241,0.474,1.843,0.736
			c0.246,0.106,0.494,0.179,0.72,0.293c0.72,0.359,1.402,0.767,2.072,1.19c0.117,0.064,0.231,0.114,0.343,0.195
			c0.766,0.508,1.486,1.063,2.189,1.665c0,0.02,0.016,0.034,0.03,0.051c1.193,1.028,2.256,2.236,3.231,3.527
			C113.92,90.183,114.311,90.741,114.687,91.326z"/>
		<path fill="#FFFFFF" d="M31.472,118.408l2.152-8.259c0.475-1.796,0.832-4.732,1.03-6.578c0.016-0.064,0.033-0.132,0.033-0.196
			c0.033-0.245,0.081-0.474,0.115-0.719c0.131-0.848,0.279-1.681,0.472-2.499c0.083-0.34,0.181-0.683,0.278-1.009
			c0.198-0.753,0.421-1.469,0.688-2.172c0.062-0.212,0.146-0.424,0.229-0.636H18.575l-6.107,13.301
			c-0.145,0.313-0.276,0.639-0.424,0.948c1.604,3.297,3.606,6.431,5.99,9.386c0.458,0.555,0.898,1.127,1.388,1.665h7.85
			C29.137,121.639,30.995,120.203,31.472,118.408z"/>
		<path fill="#FFFFFF" d="M66.06,49.299c0.245,0.195,0.362,0.296,0.605,0.472c6.073,4.735,8.585,6.104,9.547,6.5
			c0.474-0.232,0.931-0.46,1.453-0.672c7.883-4.393,15.651-9.66,20.127-18.312c-6.511-3.43-13.71-5.142-20.927-5.142
			c-7.213,0-14.444,1.729-20.961,5.156c0.084,0.198,0.15,0.407,0.249,0.588C58.322,42.102,61.651,45.938,66.06,49.299z"/>
		<path fill="#FFFFFF" d="M32.71,17.795c-1.618,10.25-0.471,22.346,4.734,31.584c0.295,0.541,0.591,1.079,0.918,1.601
			c0.323,0.507,0.65,0.978,0.992,1.452c0.798,1.093,1.618,2.17,2.546,3.131c7.853,8.132,19.623,13.862,31.029,14.643
			c1.208,0.101,2.465,0.129,3.74,0.129c5.566,0,11.605-0.795,16.636-2.43c8.713-2.855,15.91-8.471,20.872-15.768
			c0.329-0.471,0.686-0.949,0.992-1.436c0.332-0.538,0.605-1.096,0.921-1.648c1.257-2.25,2.367-4.604,3.198-7.119
			c2.071-6.169,3.053-11.93,2.027-18.474c-1.09-7.022-1.882-14.238,2.967-18.839c1.013-0.947,2.253-1.779,3.787-2.481
			c0,0-1.575-0.865-4.913-1.141c-1.615,0.017-3.756,0.017-6.121,1.046c-2.32,0.942-5.091,2.818-6.773,5.873
			c-4.701,8.504-4.492,19-8.128,28.043c-0.081,0.198-0.147,0.407-0.231,0.603c-0.139,0.326-0.309,0.622-0.468,0.934
			c-0.231,0.505-0.477,0.976-0.717,1.469c-4.724,9.023-12.687,14.707-21.612,19.65c-0.804,0.326-1.471,0.686-2.24,1.029
			c-0.131,0.064-0.278,0.077-0.441,0.077c-2.676,0-10.838-6.558-12.405-7.766c-4.453-3.398-8.273-7.523-10.855-12.503
			c-0.064-0.145-0.115-0.31-0.176-0.46c-0.248-0.488-0.426-1.01-0.641-1.531c-0.209-0.524-0.472-1.015-0.653-1.55
			c-3.118-9.097-2.626-20.716-8.226-27.996c-1.681-3.054-4.472-4.93-6.792-5.873c-2.348-1.03-4.471-1.03-6.087-1.046h-0.276
			c-1.55,0.045-3.217,0.538-4.668,1.108C32.172,5.618,33.856,10.565,32.71,17.795z"/>
		<path fill="#FFFFFF" d="M120.169,121.639c-0.524-0.72-0.915-1.517-1.144-2.384l-2.152-8.257c-0.51-1.959-0.882-4.963-1.127-7.035
			c-0.342-3.134-1.257-6.106-2.643-8.783l-0.263-0.508H40.889l-0.229,0.427c-1.417,2.758-2.332,5.73-2.677,8.864
			c-0.229,2.072-0.605,5.076-1.124,7.035l-2.156,8.257c-0.229,0.867-0.619,1.664-1.126,2.384c-1.439,2.008-3.807,3.347-6.305,3.347
			h-2.021c12.651,11.262,31.213,17.907,51.106,17.907c19.898,0,38.441-6.645,51.092-17.907h-0.999
			C123.973,124.986,121.59,123.647,120.169,121.639z M85.751,125.156c-0.675,0.92-1.62,1.62-2.838,2.08
			c-0.447,0.167-0.969,0.301-1.548,0.424l-0.059,3.684l-3.482-0.047l0.036-3.421c-0.083,0-0.169,0.014-0.253,0l-1.993-0.011
			l-0.051,3.396l-3.491-0.045l0.036-3.413l-5.339-0.069l0.045-2.867l0.825,0.014c0.53,0.014,0.892-0.024,1.081-0.137
			c0.209-0.069,0.344-0.214,0.428-0.385c0.083-0.17,0.133-0.557,0.133-1.148l0.156-11.542c0.014-0.616-0.026-1.003-0.095-1.171
			c-0.086-0.181-0.219-0.315-0.398-0.402c-0.196-0.108-0.571-0.181-1.101-0.167l-0.823-0.025l0.037-2.854l5.342,0.084l0.059-3.418
			l3.494,0.062l-0.047,3.396l2.247,0.036l0.062-3.41l3.491,0.047l-0.059,3.653c0.519,0.109,1.003,0.242,1.399,0.41
			c1.003,0.446,1.791,1.051,2.334,1.834c0.533,0.8,0.798,1.671,0.798,2.602c-0.012,0.675-0.171,1.316-0.472,1.947
			c-0.301,0.591-0.736,1.135-1.294,1.595c-0.555,0.472-1.291,0.831-2.188,1.138c0.957,0.251,1.695,0.542,2.213,0.843
			c0.725,0.426,1.316,1.003,1.729,1.764c0.424,0.753,0.627,1.584,0.616,2.513C86.77,123.245,86.417,124.252,85.751,125.156z"/>
		<path fill="#FFFFFF" d="M117.278,96.34c0.083,0.211,0.153,0.424,0.231,0.636c0.245,0.72,0.488,1.439,0.684,2.172
			c0.08,0.326,0.181,0.669,0.264,1.009c0.198,0.817,0.343,1.651,0.472,2.499c0.033,0.245,0.081,0.474,0.114,0.719
			c0,0.082,0.014,0.148,0.033,0.213c0.212,1.829,0.569,4.781,1.026,6.561l2.156,8.259c0.474,1.795,2.351,3.231,4.193,3.231h6.84
			c0.477-0.538,0.915-1.11,1.377-1.665c2.671-3.282,4.86-6.79,6.525-10.487l-6.04-13.148H117.278z"/>
		<path fill="#FFFFFF" d="M151.313,54.146c-6.09-3.361-9.33-4.816-16.159-7.198c-2.677-0.931-5.975-0.229-7.214,1.451
			c-2.674,3.658-4.818,6.79-6.644,9.779l11.491,25.007c5.304-9.759,9.896-15.358,19.896-24.159
			C154.218,57.673,153.681,55.47,151.313,54.146z M142.923,58.277c-1.548,1.682-4.802,2.105-7.445,1.063
			c-2.624-1.063-3.801-3.302-2.375-5.128c1.413-1.832,4.988-2.432,7.766-1.244C143.641,54.162,144.476,56.577,142.923,58.277z"/>
		<path fill="#FFFFFF" d="M79.408,115.293c0.569-0.179,0.99-0.471,1.291-0.87c0.29-0.396,0.449-0.859,0.449-1.386
			c0.014-0.549-0.108-1.006-0.398-1.394c-0.254-0.385-0.642-0.664-1.161-0.834c-0.507-0.167-1.427-0.266-2.755-0.279l-2.261-0.033
			l-0.07,5.039l2.27,0.037C77.955,115.583,78.842,115.5,79.408,115.293z"/>
		<path fill="#FFFFFF" d="M79.745,118.968c-0.58-0.218-1.424-0.34-2.609-0.365l-2.683-0.033l-0.062,4.484
			c0,0.627,0.026,1.004,0.051,1.11c0.061,0.133,0.142,0.245,0.253,0.292c0.12,0.053,0.421,0.084,0.918,0.084l1.51,0.036
			c0.882,0,1.607-0.062,2.189-0.218c0.577-0.156,1.074-0.493,1.484-0.99c0.413-0.511,0.63-1.127,0.63-1.849
			c0.011-0.619-0.121-1.135-0.399-1.562C80.738,119.523,80.314,119.197,79.745,118.968z"/>
	</g>
	<g transform="translate(20, 30)">
		<path fill="#FFFFFF" d="M15.645,198.327H4.273v-26.665h10.53c5.565,0,7.607,2.242,7.607,5.846v2.722
			c0,1.922-0.841,3.284-2.964,4.204c2.203,0.52,3.924,2.442,3.924,4.925v2.602C23.372,195.725,20.97,198.327,15.645,198.327
			M16.405,178.388c0-1.162-0.721-1.882-2.402-1.882H10.28v6.085h3.723c1.602,0,2.402-0.8,2.402-1.882V178.388z M17.366,189.519
			c0-1.481-0.921-2.243-2.523-2.243H10.28v6.206h3.723c1.881,0,3.363-0.4,3.363-2.322V189.519z"/>
		<path fill="#FFFFFF" d="M46.07,171.662v18.898c0,4.044-2.522,8.167-10.049,8.167c-7.527,0-10.05-4.124-10.05-8.167v-18.898h6.006
			v18.337c0,2.162,1.041,3.403,4.044,3.403s4.044-1.242,4.044-3.403v-18.337H46.07z"/>
		<path fill="#FFFFFF" d="M57.879,198.727c-3.083,0-6.326-0.68-8.608-1.721l1.001-4.645c2.442,0.761,4.924,1.281,7.687,1.281
			c3.083,0,3.684-0.601,3.684-2.842c0-2.403-0.12-2.683-4.484-3.644c-6.446-1.401-7.407-2.683-7.407-8.448
			c0-5.325,1.882-7.447,9.209-7.447c2.322,0,5.125,0.24,8.087,0.88l-0.601,5.045c-3.043-0.521-5.005-0.761-7.407-0.761
			c-2.683,0-3.283,0.481-3.283,2.443c0,2.562,0.12,2.602,4.324,3.604c7.207,1.722,7.567,3.122,7.567,8.368
			C67.648,196.125,65.927,198.727,57.879,198.727"/>
		<polygon fill="#FFFFFF" points="85.462,198.327 85.462,187.597 76.854,187.597 76.854,198.327 70.848,198.327 70.848,171.662
			76.854,171.662 76.854,182.271 85.462,182.271 85.462,171.662 91.467,171.662 91.467,198.327 	"/>
		<rect x="95.869" y="171.662" fill="#FFFFFF" width="6.006" height="26.665"/>
		<path fill="#FFFFFF" d="M116.607,198.327h-10.331v-26.665h10.331c6.565,0,9.008,3.323,9.008,6.927V191.4
			C125.616,194.964,123.173,198.327,116.607,198.327 M119.61,180.229c0-2.082-0.721-3.243-3.724-3.243h-3.604v16.015h3.604
			c3.003,0,3.724-1.161,3.724-3.243V180.229z"/>
		<path fill="#FFFFFF" d="M149.275,190.56c0,4.044-2.803,8.167-10.33,8.167s-10.33-4.124-10.33-8.167v-11.131
			c0-4.043,2.803-8.167,10.33-8.167s10.33,4.124,10.33,8.167V190.56z M143.269,179.949c0-2.082-1.321-3.362-4.324-3.362
			s-4.325,1.28-4.325,3.362v10.089c0,2.083,1.322,3.364,4.325,3.364s4.324-1.281,4.324-3.364V179.949z"/>
	</g>
</svg>